<svg width="204" height="40" viewBox="0 0 204 40" fill="none" xmlns="http://www.w3.org/2000/svg">
<path fill-rule="evenodd" clip-rule="evenodd" d="M72.2142 13.4517C71.2445 14.3784 69.6925 15.0684 68.356 15.0684C65.0363 15.0684 63.2257 12.4814 63.2257 8.79543C63.2257 5.62685 64.67 2.19948 68.2482 2.19948C69.6491 2.19948 71.0286 3.01868 71.8263 4.18253H72.1282C72.3004 3.4282 72.4297 2.69537 72.6238 1.96237C71.3737 1.27257 69.6491 0.906067 68.2265 0.906067C63.5276 0.906067 59.6476 3.47139 59.6476 9.0974C59.6476 13.5162 63.1397 16.3618 67.7524 16.3618C69.1967 16.3618 70.727 16.1032 72.0203 15.4349L72.4943 13.5811L72.2142 13.4517Z" fill="white"/>
<path fill-rule="evenodd" clip-rule="evenodd" d="M77.9028 10.2615L79.9289 5.2387L81.8475 10.2615H77.9028ZM82.3433 11.5762C82.9256 13.0207 83.378 14.4862 83.8736 16.0816C84.4988 16.0382 85.1024 15.974 85.7276 15.974C86.3527 15.974 86.9562 16.0382 87.5813 16.0816L81.5673 1.10019C81.2874 1.14321 81.0285 1.16471 80.7483 1.16471C80.4682 1.16471 80.2095 1.14321 79.9289 1.10019L73.7644 16.0382C74.1091 16.017 74.4541 15.974 74.7991 15.974C75.1437 15.974 75.4671 16.017 75.8122 16.0382C76.2216 14.5509 76.7606 13.2143 77.3209 11.5762H82.3433Z" fill="white"/>
<path fill-rule="evenodd" clip-rule="evenodd" d="M96.5896 4.07462C96.8051 3.34179 97.0207 2.63047 97.279 1.94084C96.8051 1.48813 95.4255 0.906036 93.8736 0.906036C90.5969 0.906036 88.8942 2.95396 88.8942 5.43307C88.8942 10.6281 95.318 9.37767 95.318 12.8265C95.318 14.3139 94.1322 15.0686 92.7957 15.0686C91.3086 15.0686 90.1443 14.1845 89.8211 12.697H89.4116C89.2823 13.6244 89.0451 14.5296 88.7865 15.4351C89.7996 16.0815 91.0713 16.3618 92.2568 16.3618C95.598 16.3618 97.9689 14.3784 97.9689 11.6197C97.9689 6.68313 91.4161 7.22203 91.4161 4.3119C91.4161 3.08318 92.0842 2.19945 93.7873 2.19945C95.0159 2.19945 95.8349 2.93245 96.2662 4.07462H96.5896Z" fill="white"/>
<path fill-rule="evenodd" clip-rule="evenodd" d="M100.635 16.0816C101.174 16.0382 101.713 15.9739 102.252 15.9739C102.791 15.9739 103.329 16.0382 103.868 16.0816V1.29428C103.329 1.33713 102.791 1.40182 102.252 1.40182C101.713 1.40182 101.174 1.33713 100.635 1.29428V16.0816Z" fill="white"/>
<path fill-rule="evenodd" clip-rule="evenodd" d="M107.665 16.0383C107.945 16.0171 108.247 15.9739 108.527 15.9739C108.808 15.9739 109.109 16.0171 109.39 16.0383V5.60543L111.739 8.06286C114.175 10.628 116.503 13.2794 119.003 16.0599L120.836 16.0816V1.29416C120.555 1.33718 120.254 1.35868 119.973 1.35868C119.693 1.35868 119.391 1.33718 119.111 1.29416V11.3822C116.072 7.91196 112.86 4.63515 109.799 1.29416H107.665V16.0383Z" fill="white"/>
<path fill-rule="evenodd" clip-rule="evenodd" d="M131.758 2.19942C134.992 2.19942 136.285 5.38968 136.285 8.17043C136.285 11.7487 134.798 15.0685 131.478 15.0685C128.245 15.0685 126.973 12.0935 126.973 9.29143C126.973 4.46294 128.762 2.19942 131.758 2.19942ZM139.863 8.57994C139.842 5.23878 138.031 0.906006 131.888 0.906006C126.521 0.906006 123.395 4.37673 123.395 8.66615C123.395 13.5593 126.607 16.3619 131.37 16.3619C136.651 16.3619 139.885 12.7832 139.863 8.57994Z" fill="white"/>
<path fill-rule="evenodd" clip-rule="evenodd" d="M64.7198 24.6235C66.2251 24.6235 67.4088 24.725 68.2543 24.8263C68.2375 24.6571 68.2036 24.4883 68.2036 24.3189C68.2036 24.1499 68.2375 23.9977 68.2543 23.8116H59.5281C59.5451 23.9977 59.5789 24.1499 59.5789 24.3189C59.5789 24.4883 59.5451 24.6571 59.5281 24.8263C60.492 24.725 61.5238 24.6235 63.2318 24.6235V35.4127C63.4685 35.3958 63.722 35.3622 63.9759 35.3622C64.2126 35.3622 64.4493 35.3958 64.7198 35.4127V24.6235Z" fill="white"/>
<path fill-rule="evenodd" clip-rule="evenodd" d="M74.906 35.5817C78.6772 35.5817 81.3491 33.1128 81.3491 29.3415C81.3491 25.283 78.1191 23.5579 74.9398 23.5579C71.4392 23.5579 68.6828 25.8917 68.6828 29.5953C68.6828 33.2144 71.1687 35.5817 74.906 35.5817ZM79.6919 29.4772C79.8102 31.3372 78.525 35.024 74.9567 35.024C72.4369 35.024 70.3399 33.2313 70.3399 29.7981C70.3399 26.3653 72.1326 24.1163 75.1088 24.1163C76.4618 24.1163 77.7809 24.691 78.6265 25.7565C79.5058 26.8895 79.6919 28.0731 79.6919 29.4772Z" fill="white"/>
<path fill-rule="evenodd" clip-rule="evenodd" d="M83.5853 35.3788C83.8222 35.3623 84.0758 35.3281 84.3294 35.3281C84.5659 35.3281 84.8026 35.3623 85.0735 35.3788V29.7304H85.716L87.0689 31.3204L89.0643 33.9077C89.4196 34.3811 89.7578 34.8548 90.1301 35.3788C90.4342 35.3623 90.7724 35.3281 91.0938 35.3281C91.4152 35.3281 91.7196 35.3623 92.0744 35.3788L91.7532 34.9562L90.9417 34.0091L87.4578 29.5953C89.166 29.2909 90.9248 28.3438 90.9248 26.3823C90.9248 24.6742 89.7746 23.8117 87.1702 23.8117H83.5853V35.3788ZM85.0735 24.4373C85.7838 24.4035 86.9337 24.353 87.5594 24.4544C88.8279 24.6572 89.4196 25.4183 89.4196 26.5851C89.4196 27.9041 88.4895 28.7498 87.2551 29.0034C86.3927 29.1728 85.3102 29.105 85.0735 29.0881V24.4373Z" fill="white"/>
<path fill-rule="evenodd" clip-rule="evenodd" d="M93.9211 35.3788C94.1577 35.3623 94.4116 35.3281 94.6652 35.3281C94.9018 35.3281 95.1387 35.3623 95.409 35.3788V29.7304H96.0519L97.4047 31.3204L99.4003 33.9077C99.7554 34.3811 100.094 34.8548 100.466 35.3788C100.77 35.3623 101.108 35.3281 101.43 35.3281C101.751 35.3281 102.055 35.3623 102.41 35.3788L102.089 34.9562L101.277 34.0091L97.7935 29.5953C99.5015 29.2909 101.261 28.3438 101.261 26.3823C101.261 24.6742 100.11 23.8117 97.5063 23.8117H93.9211V35.3788ZM95.409 24.4373C96.1193 24.4035 97.2696 24.353 97.8952 24.4544C99.1634 24.6572 99.7554 25.4183 99.7554 26.5851C99.7554 27.9041 98.8253 28.7498 97.5907 29.0034C96.7282 29.1728 95.646 29.105 95.409 29.0881V24.4373Z" fill="white"/>
<path fill-rule="evenodd" clip-rule="evenodd" d="M105.728 24.6064H107.03L108.721 24.6404C109.229 24.6742 109.736 24.725 110.243 24.8263C110.226 24.6571 110.193 24.4883 110.193 24.3189C110.193 24.1499 110.226 23.9977 110.243 23.8116H104.24V35.3281H110.345C110.328 35.1589 110.294 34.9901 110.294 34.8209C110.294 34.6516 110.328 34.4997 110.345 34.3138C109.82 34.3981 109.313 34.449 108.789 34.4657C107.774 34.4997 106.76 34.5671 105.728 34.5334V29.5952H108.349C108.857 29.5952 109.347 29.6631 109.854 29.68C109.837 29.494 109.804 29.3415 109.804 29.2062C109.804 29.0542 109.837 28.9021 109.854 28.7666C109.347 28.7835 108.857 28.8513 108.349 28.8513H105.728V24.6064Z" fill="white"/>
<path fill-rule="evenodd" clip-rule="evenodd" d="M122.915 29.4771C122.931 30.8637 122.12 35.0239 118.18 35.0239C115.795 35.0239 113.563 33.4343 113.563 29.798C113.563 26.8387 115 24.1162 118.331 24.1162C119.685 24.1162 121.004 24.6911 121.849 25.7735C122.729 26.8894 122.915 28.0732 122.915 29.4771ZM118.162 23.5578C114.662 23.5578 111.905 26.0608 111.905 29.5781C111.905 33.451 114.611 35.565 118.365 35.5816C118.501 35.5816 118.636 35.5481 118.771 35.5309C120.09 36.4781 122.441 38.6092 122.593 38.8289C122.999 38.5245 123.456 38.3384 123.912 38.1355C122.695 37.2729 121.105 36.0046 120.124 35.2776C122.458 34.4828 124.572 32.7239 124.572 29.3079C124.572 25.5875 121.714 23.5578 118.162 23.5578Z" fill="white"/>
<path fill-rule="evenodd" clip-rule="evenodd" d="M128.364 23.8117C128.093 23.8286 127.856 23.8624 127.62 23.8624C127.366 23.8624 127.112 23.8286 126.876 23.8117V30.5761C126.892 31.9291 127.028 33.4342 128.093 34.3981C128.973 35.1929 130.089 35.5816 131.763 35.5816C134.739 35.5816 136.701 33.891 136.701 30.5425V23.8117C136.532 23.8286 136.379 23.8624 136.227 23.8624C136.058 23.8624 135.906 23.8286 135.754 23.8117V30.1193C135.754 32.8593 134.79 34.8041 132.101 34.8041C129.209 34.8041 128.364 33.2648 128.364 30.2886V23.8117Z" fill="white"/>
<path fill-rule="evenodd" clip-rule="evenodd" d="M141.441 24.6064H142.743L144.434 24.6404C144.941 24.6742 145.449 24.725 145.956 24.8263C145.939 24.6571 145.905 24.4883 145.905 24.3189C145.905 24.1499 145.939 23.9977 145.956 23.8116H139.952V35.3281H146.057C146.04 35.1589 146.006 34.9901 146.006 34.8209C146.006 34.6516 146.04 34.4997 146.057 34.3138C145.533 34.3981 145.026 34.449 144.501 34.4657C143.487 34.4997 142.472 34.5671 141.441 34.5334V29.5952H144.062C144.569 29.5952 145.06 29.6631 145.567 29.68C145.55 29.494 145.516 29.3415 145.516 29.2062C145.516 29.0542 145.55 28.9021 145.567 28.7666C145.06 28.7835 144.569 28.8513 144.062 28.8513H141.441V24.6064Z" fill="white"/>
<path fill-rule="evenodd" clip-rule="evenodd" d="M150.002 29.5277H150.949C152.995 29.5277 154.45 30.0859 154.45 32.0812C154.45 33.6203 153.266 34.7025 151.609 34.7025H150.002V29.5277ZM150.002 24.4373H151.254C153.029 24.4373 154.128 24.8939 154.128 26.5006C154.128 27.4135 153.655 28.1579 152.827 28.5468C151.913 28.9695 150.966 28.902 150.002 28.902V24.4373ZM148.514 35.3281H150.932C152.099 35.3449 153.503 35.3449 154.501 34.6515C155.482 33.9751 156.023 32.9945 156.023 31.7939C156.023 29.832 154.247 29.2233 152.928 29.1386C154.416 28.7667 155.6 27.7349 155.6 26.1455C155.6 24.4035 154.315 23.8117 151.829 23.8117H148.514V35.3281Z" fill="white"/>
<path fill-rule="evenodd" clip-rule="evenodd" d="M158.766 35.3788C159.002 35.3623 159.256 35.3281 159.509 35.3281C159.746 35.3281 159.983 35.3623 160.253 35.3788V29.7304H160.896L162.249 31.3204L164.244 33.9077C164.6 34.3811 164.938 34.8548 165.31 35.3788C165.614 35.3623 165.952 35.3281 166.274 35.3281C166.595 35.3281 166.9 35.3623 167.255 35.3788L166.933 34.9562L166.122 34.0091L162.638 29.5953C164.346 29.2909 166.105 28.3438 166.105 26.3823C166.105 24.6742 164.955 23.8117 162.35 23.8117H158.766V35.3788ZM160.253 24.4373C160.964 24.4035 162.114 24.353 162.739 24.4544C164.008 24.6572 164.6 25.4183 164.6 26.5851C164.6 27.9041 163.67 28.7498 162.435 29.0034C161.573 29.1728 160.49 29.105 160.253 29.0881V24.4373Z" fill="white"/>
<path fill-rule="evenodd" clip-rule="evenodd" d="M174.783 30.1027H171.063L172.906 25.7735L174.783 30.1027ZM173.515 23.558H173.126L167.85 35.3788C168.036 35.3622 168.222 35.3281 168.441 35.3281C168.644 35.3281 168.83 35.3622 169.067 35.3788C169.541 33.7892 170.149 32.301 170.741 30.8132H175.037C175.713 32.3519 176.322 33.9753 176.813 35.3788C177.1 35.3622 177.387 35.3281 177.709 35.3281C177.996 35.3281 178.267 35.3622 178.588 35.3788L173.515 23.558Z" fill="white"/>
<path fill-rule="evenodd" clip-rule="evenodd" d="M180.556 35.3281H183.854C185.646 35.3281 187.523 35.2945 188.961 34.043C190.229 32.9268 191.092 31.4048 191.092 29.0541C191.092 27.4476 190.55 25.8749 189.282 24.8263C187.862 23.6425 186.154 23.8116 184.395 23.8116H180.556V35.3281ZM182.044 24.4883C182.771 24.4712 183.482 24.4204 184.175 24.4204C187.963 24.4204 189.434 25.7225 189.434 29.3079C189.434 31.3712 188.826 33.2483 186.999 34.1613C185.63 34.8547 183.532 34.6516 182.044 34.5671V24.4883Z" fill="white"/>
<mask id="mask0_0_777" style="mask-type:alpha" maskUnits="userSpaceOnUse" x="192" y="23" width="12" height="13">
<path fill-rule="evenodd" clip-rule="evenodd" d="M192.297 23.558H203.036V35.3788H192.297V23.558Z" fill="white"/>
</mask>
<g mask="url(#mask0_0_777)">
<path fill-rule="evenodd" clip-rule="evenodd" d="M199.231 30.1027H195.51L197.353 25.7735L199.231 30.1027ZM197.962 23.558H197.573L192.297 35.3788C192.483 35.3622 192.669 35.3281 192.889 35.3281C193.092 35.3281 193.278 35.3622 193.514 35.3788C193.988 33.7892 194.597 32.301 195.189 30.8132H199.484C200.161 32.3519 200.769 33.9753 201.26 35.3788C201.547 35.3622 201.835 35.3281 202.156 35.3281C202.444 35.3281 202.714 35.3622 203.036 35.3788L197.962 23.558Z" fill="white"/>
</g>
<path fill-rule="evenodd" clip-rule="evenodd" d="M174.783 30.1027H171.063L172.906 25.7735L174.783 30.1027ZM173.515 23.558H173.126L167.85 35.3788C168.036 35.3622 168.222 35.3281 168.441 35.3281C168.644 35.3281 168.83 35.3622 169.067 35.3788C169.541 33.7892 170.149 32.301 170.741 30.8132H175.037C175.713 32.3519 176.322 33.9753 176.813 35.3788C177.1 35.3622 177.387 35.3281 177.709 35.3281C177.996 35.3281 178.267 35.3622 178.588 35.3788L173.515 23.558Z" fill="white"/>
<path fill-rule="evenodd" clip-rule="evenodd" d="M158.766 35.3788C159.002 35.3623 159.256 35.3281 159.509 35.3281C159.746 35.3281 159.983 35.3623 160.253 35.3788V29.7304H160.896L162.249 31.3204L164.244 33.9077C164.6 34.3811 164.938 34.8548 165.31 35.3788C165.614 35.3623 165.952 35.3281 166.274 35.3281C166.595 35.3281 166.9 35.3623 167.255 35.3788L166.933 34.9562L166.122 34.0091L162.638 29.5953C164.346 29.2909 166.105 28.3438 166.105 26.3823C166.105 24.6742 164.955 23.8117 162.35 23.8117H158.766V35.3788ZM160.253 24.4373C160.964 24.4035 162.114 24.353 162.739 24.4544C164.008 24.6572 164.6 25.4183 164.6 26.5851C164.6 27.9041 163.67 28.7498 162.435 29.0034C161.573 29.1728 160.49 29.105 160.253 29.0881V24.4373Z" fill="white"/>
<path fill-rule="evenodd" clip-rule="evenodd" d="M150.002 29.5277H150.949C152.995 29.5277 154.45 30.0859 154.45 32.0812C154.45 33.6203 153.266 34.7025 151.609 34.7025H150.002V29.5277ZM150.002 24.4373H151.254C153.029 24.4373 154.128 24.8939 154.128 26.5006C154.128 27.4135 153.655 28.1579 152.827 28.5468C151.913 28.9695 150.966 28.902 150.002 28.902V24.4373ZM148.514 35.3281H150.932C152.099 35.3449 153.503 35.3449 154.501 34.6515C155.482 33.9751 156.023 32.9945 156.023 31.7939C156.023 29.832 154.247 29.2233 152.928 29.1386C154.416 28.7667 155.6 27.7349 155.6 26.1455C155.6 24.4035 154.315 23.8117 151.829 23.8117H148.514V35.3281Z" fill="white"/>
<path fill-rule="evenodd" clip-rule="evenodd" d="M180.556 35.3281H183.854C185.646 35.3281 187.523 35.2945 188.961 34.043C190.229 32.9268 191.092 31.4048 191.092 29.0541C191.092 27.4476 190.55 25.8749 189.282 24.8263C187.862 23.6425 186.154 23.8116 184.395 23.8116H180.556V35.3281ZM182.044 24.4883C182.771 24.4712 183.482 24.4204 184.175 24.4204C187.963 24.4204 189.434 25.7225 189.434 29.3079C189.434 31.3712 188.826 33.2483 186.999 34.1613C185.63 34.8547 183.532 34.6516 182.044 34.5671V24.4883Z" fill="white"/>
<path fill-rule="evenodd" clip-rule="evenodd" d="M29.2059 36.3068V12.152C29.2059 7.87693 32.1985 8.51809 32.1985 8.51809H52.1845V0.181311H31.4505C31.4505 0.181311 27.0685 -0.352989 27.0685 6.16683V36.3068H29.2059Z" fill="white"/>
<mask id="mask1_0_777" style="mask-type:alpha" maskUnits="userSpaceOnUse" x="27" y="0" width="26" height="37">
<path fill-rule="evenodd" clip-rule="evenodd" d="M27.0685 6.1668V36.3067H29.2059V12.152C29.2059 7.87707 32.1985 8.51806 32.1985 8.51806H52.1845V0.181451H31.4503C31.4503 0.181451 31.3635 0.170868 31.2141 0.170868C30.3033 0.170868 27.0685 0.565021 27.0685 6.1668Z" fill="white"/>
</mask>
<g mask="url(#mask1_0_777)">
<path fill-rule="evenodd" clip-rule="evenodd" d="M30.3992 43.2502V19.0955C30.3992 14.8204 33.3916 15.4619 33.3916 15.4619H53.3776V7.12511H31.5494C31.5494 7.12511 28.2616 6.59064 28.2616 13.1103V43.2502H30.3992Z" fill="white"/>
</g>
<path fill-rule="evenodd" clip-rule="evenodd" d="M23.1471 36.3068V12.152C23.1471 7.87693 20.1545 8.51809 20.1545 8.51809H0.168671V0.181311H20.9029C20.9029 0.181311 25.2847 -0.352989 25.2847 6.16683V36.3068H23.1471Z" fill="white"/>
<mask id="mask2_0_777" style="mask-type:alpha" maskUnits="userSpaceOnUse" x="0" y="0" width="26" height="37">
<path fill-rule="evenodd" clip-rule="evenodd" d="M20.9028 0.181451H0.16861V8.51806H20.1546C20.1546 8.51806 23.1471 7.87707 23.1471 12.152V36.3067H25.2848V6.1668C25.2848 0.565021 22.05 0.170868 21.1392 0.170868C20.9899 0.170868 20.9028 0.181451 20.9028 0.181451Z" fill="white"/>
</mask>
<g mask="url(#mask2_0_777)">
<path fill-rule="evenodd" clip-rule="evenodd" d="M21.9543 43.2502V19.0955C21.9543 14.8204 18.9617 15.4619 18.9617 15.4619H-1.02396V7.12511H20.8039C20.8039 7.12511 24.0917 6.59064 24.0917 13.1103V43.2502H21.9543Z" fill="white"/>
</g>
<path fill-rule="evenodd" clip-rule="evenodd" d="M38.6954 23.9088C37.1478 27.4149 31.7871 30.001 25.4118 30.001C17.827 30.001 11.6782 26.3403 11.6782 21.8246C11.6782 17.309 17.827 13.6484 25.4118 13.6484C31.916 13.6484 37.3641 16.3399 38.8381 19.9543H36.0636C34.7439 17.4747 31.028 15.6789 26.6411 15.6789C21.2106 15.6789 16.8084 18.4305 16.8084 21.8246C16.8084 25.2188 21.2106 27.9702 26.6411 27.9702C30.9009 27.9702 34.528 26.277 35.8936 23.9088H38.6954Z" fill="white"/>
<mask id="mask3_0_777" style="mask-type:alpha" maskUnits="userSpaceOnUse" x="11" y="13" width="28" height="18">
<path fill-rule="evenodd" clip-rule="evenodd" d="M11.6783 21.8245C11.6783 26.3404 17.827 30.001 25.4119 30.001C31.7871 30.001 37.1478 27.4148 38.6955 23.9088H35.8937C34.5281 26.2769 30.9008 27.9701 26.6412 27.9701C21.2105 27.9701 16.8083 25.2187 16.8083 21.8245C16.8083 18.4304 21.2105 15.6789 26.6412 15.6789C31.0279 15.6789 34.7438 17.4746 36.0635 19.9543H38.8382C37.364 16.3398 31.9159 13.6483 25.4119 13.6483C17.827 13.6483 11.6783 17.3089 11.6783 21.8245Z" fill="white"/>
</mask>
<g mask="url(#mask3_0_777)">
<path fill-rule="evenodd" clip-rule="evenodd" d="M36.7423 24.157L36.6381 24.338C35.0567 27.0805 31.0587 28.8295 26.6411 28.8295C21.1418 28.8295 15.9491 26.0162 15.9491 21.8245C15.9491 17.6329 21.1418 14.8198 26.6411 14.8198C31.1874 14.8198 35.3048 16.6741 36.8353 19.5504L36.9463 19.7584L36.7423 24.157Z" fill="white"/>
</g>
</svg>
